# xmcd
#
# Track frame offsets: 
#        150
#        13887
#        32642
#        46402
#        61902
#        78040
#        95205
#        110322
#        126360
#        146627
#        160407
#        181397
#        199172
#        212392
#        228720
#
# Disc length: 3302 seconds
#
# Revision: 2
# Processed by: cddbd v1.5.2PL0 Copyright (c) Steve Scherf et al.
# Submitted via: ExactAudioCopyFreeDBPlugin 1.0
#
DISCID=d10ce40f
DTITLE=Tim McGraw - Greatest Hits
DYEAR=2000
DGENRE=Country
TTITLE0=Indian Outlaw
TTITLE1=Don't Take The Girl
TTITLE2=She Never Lets It Go To Her Heart
TTITLE3=I Like It, I Love It
TTITLE4=Just To See You Smile
TTITLE5=It's Your Love (With Faith Hill)
TTITLE6=Where The Green Grass Grows
TTITLE7=For A Little While
TTITLE8=Please Remember Me
TTITLE9=Something Like That
TTITLE10=My Best Friend
TTITLE11=Maybe We Should Just Sleep On It
TTITLE12=Down On The Farm
TTITLE13=My Next Thirty Years
TTITLE14=Lets Make Love (With Faith Hill)
EXTD=YEAR: 2000 ID3G: 2
EXTT0=
EXTT1=
EXTT2=
EXTT3=
EXTT4=
EXTT5=
EXTT6=
EXTT7=
EXTT8=
EXTT9=
EXTT10=
EXTT11=
EXTT12=
EXTT13=
EXTT14=
PLAYORDER=
